<svg width="208" height="208" viewBox="0 0 208 208" fill="none" xmlns="http://www.w3.org/2000/svg">
<circle cx="103.636" cy="103.637" r="19" fill="#D9D9D9"/>
<path d="M142.333 129.665C147.481 122.011 150.244 113.003 150.272 103.779C150.301 94.5554 147.593 85.5304 142.492 77.8454C137.391 70.1605 130.126 64.1607 121.615 60.6048C113.104 57.0489 103.73 56.0967 94.6779 57.8685C85.6259 59.6402 77.3025 64.0564 70.7604 70.5587C64.2182 77.0609 59.7511 85.357 57.9239 94.398C56.0968 103.439 56.9916 112.819 60.4953 121.351C63.999 129.884 69.9542 137.186 77.6078 142.334L91.1425 122.211C87.4688 119.74 84.6103 116.235 82.9285 112.14C81.2468 108.044 80.8172 103.542 81.6943 99.202C82.5713 94.8623 84.7155 90.8801 87.8558 87.7591C90.996 84.638 94.9912 82.5182 99.3362 81.6678C103.681 80.8173 108.181 81.2744 112.266 82.9812C116.351 84.688 119.838 87.5679 122.287 91.2567C124.735 94.9455 126.035 99.2775 126.021 103.705C126.008 108.132 124.682 112.456 122.211 116.13L142.333 129.665Z" fill="#958787"/>
<path d="M48.6745 158.598C63.2512 173.174 83.0214 181.364 103.636 181.364C124.251 181.364 144.021 173.174 158.597 158.598C173.174 144.021 181.363 124.251 181.363 103.636C181.363 83.0218 173.174 63.2515 158.597 48.6749L139.361 67.9114C148.836 77.3862 154.159 90.2369 154.159 103.636C154.159 117.036 148.836 129.886 139.361 139.361C129.886 148.836 117.035 154.159 103.636 154.159C90.2365 154.159 77.3858 148.836 67.911 139.361L48.6745 158.598Z" fill="#B2AFAF"/>
<path d="M160.256 190.439C137.234 205.456 109.19 210.712 82.2934 205.051C55.3965 199.391 31.8499 183.277 16.8335 160.256C1.81711 137.234 -3.43899 109.19 2.22147 82.2935C7.88194 55.3967 23.9953 31.85 47.0168 16.8336L61.1717 38.5343C43.9056 49.7966 31.8205 67.4566 27.5752 87.6292C23.3298 107.802 27.2719 128.835 38.5342 146.101C49.7965 163.367 67.4565 175.452 87.6291 179.697C107.802 183.943 128.835 180.001 146.101 168.739L160.256 190.439Z" fill="#D5D5D5"/>
</svg>
